<svg width="16" height="16" viewBox="0 0 16 16" fill="none" xmlns="http://www.w3.org/2000/svg">
<path d="M13.5 4.0625H11.375L10.8687 2.64375C10.8338 2.54667 10.7697 2.46275 10.6852 2.40346C10.6008 2.34418 10.5001 2.31241 10.3969 2.3125H5.60313C5.39219 2.3125 5.20312 2.44531 5.13281 2.64375L4.625 4.0625H2.5C1.80937 4.0625 1.25 4.62188 1.25 5.3125V12.4375C1.25 13.1281 1.80937 13.6875 2.5 13.6875H13.5C14.1906 13.6875 14.75 13.1281 14.75 12.4375V5.3125C14.75 4.62188 14.1906 4.0625 13.5 4.0625ZM8 11.1875C6.61875 11.1875 5.5 10.0687 5.5 8.6875C5.5 7.30625 6.61875 6.1875 8 6.1875C9.38125 6.1875 10.5 7.30625 10.5 8.6875C10.5 10.0687 9.38125 11.1875 8 11.1875ZM6.5 8.6875C6.5 9.08532 6.65804 9.46686 6.93934 9.74816C7.22064 10.0295 7.60218 10.1875 8 10.1875C8.39782 10.1875 8.77936 10.0295 9.06066 9.74816C9.34196 9.46686 9.5 9.08532 9.5 8.6875C9.5 8.28968 9.34196 7.90814 9.06066 7.62684C8.77936 7.34554 8.39782 7.1875 8 7.1875C7.60218 7.1875 7.22064 7.34554 6.93934 7.62684C6.65804 7.90814 6.5 8.28968 6.5 8.6875Z" fill="black"/>
</svg>
