<svg width="24" height="24" viewBox="0 0 24 24" fill="none" xmlns="http://www.w3.org/2000/svg">
<path d="M21.2292 10.1143C20.6532 9.15428 19.6932 7.85028 18.3572 6.70028L20.5272 4.5303C20.8202 4.2373 20.8202 3.76226 20.5272 3.46926C20.2342 3.17626 19.7592 3.17626 19.4662 3.46926L13.9332 9.00228L13.9312 9.00326L13.9302 9.0043L3.46518 19.4693C3.17218 19.7623 3.17218 20.2373 3.46518 20.5303C3.61118 20.6763 3.80318 20.7503 3.99518 20.7503C4.18718 20.7503 4.37918 20.6773 4.52518 20.5303L6.83518 18.2202C8.41918 19.2322 10.1522 19.7503 11.9972 19.7503C16.9442 19.7503 19.9032 16.0773 21.2282 13.8853C21.9262 12.7223 21.9262 11.2783 21.2292 10.1143ZM14.7472 12.0003C14.7472 13.5173 13.5132 14.7503 11.9972 14.7503C11.5192 14.7503 11.0682 14.6182 10.6662 14.3922L14.3882 10.6703C14.6152 11.0713 14.7472 11.5223 14.7472 12.0003ZM19.9452 13.1123C18.7852 15.0313 16.2102 18.2503 11.9992 18.2503C10.5582 18.2503 9.20119 17.8552 7.94019 17.1172L9.57517 15.4823C10.2782 15.9773 11.1132 16.2503 11.9962 16.2503C14.3392 16.2503 16.2462 14.3433 16.2462 12.0003C16.2462 11.1173 15.9732 10.2822 15.4782 9.57925L17.2952 7.76229C18.5272 8.80029 19.4142 10.0043 19.9432 10.8853C20.3542 11.5733 20.3542 12.4273 19.9452 13.1123ZM4.12818 15.7832C3.63018 15.1932 3.17318 14.5553 2.77018 13.8873C2.07418 12.7213 2.07417 11.2773 2.76917 10.1153C4.09417 7.92326 7.05319 4.25027 12.0002 4.25027C12.9562 4.25027 13.8802 4.38826 14.8252 4.67226C15.2212 4.79126 15.4472 5.20929 15.3272 5.60629C15.2082 6.00329 14.7902 6.22824 14.3932 6.10824C13.5902 5.86724 12.8072 5.75027 11.9992 5.75027C7.78918 5.75027 5.21316 8.96927 4.05316 10.8883C3.64416 11.5733 3.64418 12.4273 4.05518 13.1153C4.41618 13.7133 4.82617 14.2863 5.27417 14.8163C5.54117 15.1323 5.50118 15.6063 5.18518 15.8733C5.04418 15.9923 4.87318 16.0503 4.70218 16.0503C4.48818 16.0503 4.27618 15.9592 4.12818 15.7832ZM12.1882 8.43527C12.2512 8.84426 11.9712 9.22725 11.5612 9.29025C10.4012 9.46925 9.46718 10.4043 9.28818 11.5633C9.23118 11.9343 8.91219 12.1992 8.54819 12.1992C8.51019 12.1992 8.47117 12.1963 8.43317 12.1903C8.02317 12.1273 7.74319 11.7443 7.80619 11.3353C8.08819 9.50729 9.50619 8.09025 11.3332 7.80825C11.7362 7.74625 12.1242 8.02627 12.1882 8.43527Z" fill="#2B2D2B"/>
</svg>
