<svg width="48" height="48" viewBox="0 0 48 48" fill="none" xmlns="http://www.w3.org/2000/svg">
<path d="M42.4571 20.2319C39.8271 15.8519 33.9311 8.5 23.9991 8.5C14.0691 8.5 8.17111 15.8499 5.54111 20.2319C4.14711 22.5559 4.14711 25.4419 5.54111 27.7679C8.17311 32.1479 14.0691 39.5 23.9991 39.5C33.9311 39.5 39.8271 32.1499 42.4571 27.7679C43.8531 25.4439 43.8531 22.5579 42.4571 20.2319ZM39.8851 26.226C37.5811 30.064 32.4531 36.502 23.9991 36.502C15.5451 36.502 10.4171 30.064 8.11313 26.226C7.29113 24.854 7.29113 23.148 8.11313 21.778C10.4171 17.94 15.5471 11.502 23.9991 11.502C32.4551 11.502 37.5831 17.94 39.8851 21.778C40.7091 23.148 40.7091 24.854 39.8851 26.226ZM23.9991 15.502C19.3131 15.502 15.4991 19.316 15.4991 24.002C15.4991 28.688 19.3131 32.502 23.9991 32.502C28.6851 32.502 32.4991 28.688 32.4991 24.002C32.4991 19.316 28.6851 15.502 23.9991 15.502ZM23.9991 29.502C20.9651 29.502 18.4991 27.036 18.4991 24.002C18.4991 20.968 20.9651 18.502 23.9991 18.502C27.0331 18.502 29.4991 20.968 29.4991 24.002C29.4991 27.036 27.0331 29.502 23.9991 29.502Z" fill="#2B2D2B"/>
</svg>
