<svg width="12" height="12" viewBox="0 0 12 12" fill="none" xmlns="http://www.w3.org/2000/svg">
<path d="M5.69952 9.08036L9.39752 5.38236C8.77542 5.12247 8.2104 4.74296 7.73452 4.26536C7.25669 3.78938 6.877 3.22419 6.61702 2.60186L2.91902 6.29986C2.63052 6.58836 2.48602 6.73286 2.36202 6.89186C2.21572 7.0796 2.09015 7.28261 1.98752 7.49736C1.90102 7.67936 1.83652 7.87336 1.70752 8.26036L1.02652 10.3019C0.995178 10.3953 0.990528 10.4957 1.01309 10.5917C1.03566 10.6876 1.08454 10.7754 1.15426 10.8451C1.22397 10.9148 1.31174 10.9637 1.40771 10.9863C1.50369 11.0089 1.60405 11.0042 1.69752 10.9729L3.73902 10.2919C4.12652 10.1629 4.32002 10.0984 4.50202 10.0119C4.71769 9.90919 4.91952 9.78436 5.10752 9.63736C5.26652 9.51336 5.41102 9.36886 5.69952 9.08036ZM10.4235 4.35636C10.7922 3.98764 10.9994 3.48756 10.9994 2.96611C10.9994 2.44467 10.7922 1.94458 10.4235 1.57586C10.0548 1.20714 9.55472 1 9.03327 1C8.51183 1 8.01174 1.20714 7.64302 1.57586L7.19952 2.01936L7.21852 2.07486C7.43701 2.70025 7.79467 3.26786 8.26452 3.73486C8.74549 4.21877 9.33297 4.58348 9.98002 4.79986L10.4235 4.35636Z" fill="white"/>
</svg>
