<svg width="14" height="14" viewBox="0 0 14 14" fill="none" xmlns="http://www.w3.org/2000/svg">
<path d="M7.58354 3.94158L9.88771 6.24575C9.94152 6.30146 10.0059 6.3459 10.0771 6.37648C10.1482 6.40705 10.2248 6.42314 10.3022 6.42381C10.3797 6.42449 10.4565 6.40973 10.5282 6.3804C10.5999 6.35107 10.665 6.30775 10.7198 6.25298C10.7745 6.19821 10.8179 6.13308 10.8472 6.06139C10.8765 5.9897 10.8913 5.91289 10.8906 5.83543C10.8899 5.75798 10.8738 5.68143 10.8433 5.61026C10.8127 5.5391 10.7683 5.47473 10.7125 5.42092L7.41262 2.121C7.30323 2.01164 7.15489 1.95021 7.00021 1.95021C6.84553 1.95021 6.69718 2.01164 6.58779 2.121L3.28787 5.42092C3.18161 5.53093 3.12282 5.67829 3.12415 5.83123C3.12548 5.98418 3.18682 6.13049 3.29498 6.23864C3.40313 6.3468 3.54944 6.40815 3.70239 6.40948C3.85534 6.41081 4.00269 6.35201 4.11271 6.24575L6.41687 3.94158L6.41687 11.6667C6.41687 11.8214 6.47833 11.9697 6.58773 12.0791C6.69712 12.1885 6.8455 12.25 7.00021 12.25C7.15492 12.25 7.30329 12.1885 7.41269 12.0791C7.52208 11.9697 7.58354 11.8214 7.58354 11.6667L7.58354 3.94158Z" fill="#2B2D2B"/>
</svg>
